HIERARCHY
ROOT Hips
{
  OFFSET -283.505 93.2753 1615.99
  CHANNELS 6 Xposition Yposition Zposition Zrotation Xrotation Yrotation
  JOINT Spine
  {
    OFFSET 0 8 0
    CHANNELS 6 Xposition Yposition Zposition Zrotation Xrotation Yrotation
    JOINT Spine1
    {
      OFFSET 0 8 0
      CHANNELS 6 Xposition Yposition Zposition Zrotation Xrotation Yrotation
      JOINT Spine2
      {
        OFFSET 0 8 0
        CHANNELS 6 Xposition Yposition Zposition Zrotation Xrotation Yrotation
        JOINT Spine3
        {
          OFFSET 0 8 0
          CHANNELS 6 Xposition Yposition Zposition Zrotation Xrotation Yrotation
          JOINT Neck
          {
            OFFSET 0 17 0
            CHANNELS 6 Xposition Yposition Zposition Zrotation Xrotation Yrotation
            JOINT Head
            {
              OFFSET 0 10.8 0
              CHANNELS 6 Xposition Yposition Zposition Zrotation Xrotation Yrotation
              End Site
              {
                OFFSET 0 20.25 0
              }
            }
          }
          JOINT LeftShoulder
          {
            OFFSET 5 17 0
            CHANNELS 6 Xposition Yposition Zposition Zrotation Xrotation Yrotation
            JOINT LeftShoulder2
            {
              OFFSET 6.45 0 0
              CHANNELS 6 Xposition Yposition Zposition Zrotation Xrotation Yrotation
              JOINT LeftArm
              {
                OFFSET 6.45 0 0
                CHANNELS 6 Xposition Yposition Zposition Zrotation Xrotation Yrotation
                JOINT LeftForeArm
                {
                  OFFSET 0 -32.4 -2
                  CHANNELS 6 Xposition Yposition Zposition Zrotation Xrotation Yrotation
                  JOINT LeftHand
                  {
                    OFFSET 0 -25.65 2
                    CHANNELS 6 Xposition Yposition Zposition Zrotation Xrotation Yrotation
                    JOINT LeftHandThumb1
                    {
                      OFFSET -0.5 -1.5 2.65
                      CHANNELS 6 Xposition Yposition Zposition Zrotation Xrotation Yrotation
                      JOINT LeftHandThumb2
                      {
                        OFFSET 0 -3.8 3.7
                        CHANNELS 6 Xposition Yposition Zposition Zrotation Xrotation Yrotation
                        JOINT LeftHandThumb3
                        {
                          OFFSET 0 -3 2.7
                          CHANNELS 6 Xposition Yposition Zposition Zrotation Xrotation Yrotation
                          End Site
                          {
                            OFFSET 0 -2.3 1.8
                          }
                        }
                      }
                    }
                    JOINT LeftHandIndex
                    {
                      OFFSET 0 -1.9 1.6
                      CHANNELS 6 Xposition Yposition Zposition Zrotation Xrotation Yrotation
                      JOINT LeftHandIndex1
                      {
                        OFFSET 0 -8.3 1.9
                        CHANNELS 6 Xposition Yposition Zposition Zrotation Xrotation Yrotation
                        JOINT LeftHandIndex2
                        {
                          OFFSET 0 -4.5 0
                          CHANNELS 6 Xposition Yposition Zposition Zrotation Xrotation Yrotation
                          JOINT LeftHandIndex3
                          {
                            OFFSET 0 -3.4 0
                            CHANNELS 6 Xposition Yposition Zposition Zrotation Xrotation Yrotation
                            End Site
                            {
                              OFFSET 0 -2.6 0
                            }
                          }
                        }
                      }
                    }
                    JOINT LeftHandMiddle
                    {
                      OFFSET -0.25 -2.2 0.4
                      CHANNELS 6 Xposition Yposition Zposition Zrotation Xrotation Yrotation
                      JOINT LeftHandMiddle1
                      {
                        OFFSET 0 -8.3 1
                        CHANNELS 6 Xposition Yposition Zposition Zrotation Xrotation Yrotation
                        JOINT LeftHandMiddle2
                        {
                          OFFSET 0 -4.65 0
                          CHANNELS 6 Xposition Yposition Zposition Zrotation Xrotation Yrotation
                          JOINT LeftHandMiddle3
                          {
                            OFFSET 0 -3.3 0
                            CHANNELS 6 Xposition Yposition Zposition Zrotation Xrotation Yrotation
                            End Site
                            {
                              OFFSET 0 -2.7 0
                            }
                          }
                        }
                      }
                    }
                    JOINT LeftHandRing
                    {
                      OFFSET -0.5 -2.15 -0.8
                      CHANNELS 6 Xposition Yposition Zposition Zrotation Xrotation Yrotation
                      JOINT LeftHandRing1
                      {
                        OFFSET 0 -7.75 -0.2
                        CHANNELS 6 Xposition Yposition Zposition Zrotation Xrotation Yrotation
                        JOINT LeftHandRing2
                        {
                          OFFSET 0 -3.8 0
                          CHANNELS 6 Xposition Yposition Zposition Zrotation Xrotation Yrotation
                          JOINT LeftHandRing3
                          {
                            OFFSET 0 -3.4 0
                            CHANNELS 6 Xposition Yposition Zposition Zrotation Xrotation Yrotation
                            End Site
                            {
                              OFFSET 0 -2.6 0
                            }
                          }
                        }
                      }
                    }
                    JOINT LeftHandPinky
                    {
                      OFFSET -0.75 -1.75 -1.85
                      CHANNELS 6 Xposition Yposition Zposition Zrotation Xrotation Yrotation
                      JOINT LeftHandPinky1
                      {
                        OFFSET 0 -7.15 -1
                        CHANNELS 6 Xposition Yposition Zposition Zrotation Xrotation Yrotation
                        JOINT LeftHandPinky2
                        {
                          OFFSET 0 -3 0
                          CHANNELS 6 Xposition Yposition Zposition Zrotation Xrotation Yrotation
                          JOINT LeftHandPinky3
                          {
                            OFFSET 0 -2.35 0
                            CHANNELS 6 Xposition Yposition Zposition Zrotation Xrotation Yrotation
                            End Site
                            {
                              OFFSET 0 -2.1 0
                            }
                          }
                        }
                      }
                    }
                  }
                }
              }
            }
          }
          JOINT RightShoulder
          {
            OFFSET -5 17 0
            CHANNELS 6 Xposition Yposition Zposition Zrotation Xrotation Yrotation
            JOINT RightShoulder2
            {
              OFFSET -6.45 0 0
              CHANNELS 6 Xposition Yposition Zposition Zrotation Xrotation Yrotation
              JOINT RightArm
              {
                OFFSET -6.45 0 0
                CHANNELS 6 Xposition Yposition Zposition Zrotation Xrotation Yrotation
                JOINT RightForeArm
                {
                  OFFSET 0 -32.4 -2
                  CHANNELS 6 Xposition Yposition Zposition Zrotation Xrotation Yrotation
                  JOINT RightHand
                  {
                    OFFSET 0 -25.65 2
                    CHANNELS 6 Xposition Yposition Zposition Zrotation Xrotation Yrotation
                    JOINT RightHandThumb1
                    {
                      OFFSET 0.5 -1.5 2.65
                      CHANNELS 6 Xposition Yposition Zposition Zrotation Xrotation Yrotation
                      JOINT RightHandThumb2
                      {
                        OFFSET 0 -3.8 3.7
                        CHANNELS 6 Xposition Yposition Zposition Zrotation Xrotation Yrotation
                        JOINT RightHandThumb3
                        {
                          OFFSET 0 -3 2.7
                          CHANNELS 6 Xposition Yposition Zposition Zrotation Xrotation Yrotation
                          End Site
                          {
                            OFFSET 0 -2.3 1.8
                          }
                        }
                      }
                    }
                    JOINT RightHandIndex
                    {
                      OFFSET 0 -1.9 1.6
                      CHANNELS 6 Xposition Yposition Zposition Zrotation Xrotation Yrotation
                      JOINT RightHandIndex1
                      {
                        OFFSET 0 -8.3 1.9
                        CHANNELS 6 Xposition Yposition Zposition Zrotation Xrotation Yrotation
                        JOINT RightHandIndex2
                        {
                          OFFSET 0 -4.5 0
                          CHANNELS 6 Xposition Yposition Zposition Zrotation Xrotation Yrotation
                          JOINT RightHandIndex3
                          {
                            OFFSET 0 -3.4 0
                            CHANNELS 6 Xposition Yposition Zposition Zrotation Xrotation Yrotation
                            End Site
                            {
                              OFFSET 0 -2.6 0
                            }
                          }
                        }
                      }
                    }
                    JOINT RightHandMiddle
                    {
                      OFFSET 0.25 -2.2 0.4
                      CHANNELS 6 Xposition Yposition Zposition Zrotation Xrotation Yrotation
                      JOINT RightHandMiddle1
                      {
                        OFFSET 0 -8.3 1
                        CHANNELS 6 Xposition Yposition Zposition Zrotation Xrotation Yrotation
                        JOINT RightHandMiddle2
                        {
                          OFFSET 0 -4.65 0
                          CHANNELS 6 Xposition Yposition Zposition Zrotation Xrotation Yrotation
                          JOINT RightHandMiddle3
                          {
                            OFFSET 0 -3.3 0
                            CHANNELS 6 Xposition Yposition Zposition Zrotation Xrotation Yrotation
                            End Site
                            {
                              OFFSET 0 -2.7 0
                            }
                          }
                        }
                      }
                    }
                    JOINT RightHandRing
                    {
                      OFFSET 0.5 -2.15 -0.8
                      CHANNELS 6 Xposition Yposition Zposition Zrotation Xrotation Yrotation
                      JOINT RightHandRing1
                      {
                        OFFSET 0 -7.75 -0.2
                        CHANNELS 6 Xposition Yposition Zposition Zrotation Xrotation Yrotation
                        JOINT RightHandRing2
                        {
                          OFFSET 0 -3.8 0
                          CHANNELS 6 Xposition Yposition Zposition Zrotation Xrotation Yrotation
                          JOINT RightHandRing3
                          {
                            OFFSET 0 -3.4 0
                            CHANNELS 6 Xposition Yposition Zposition Zrotation Xrotation Yrotation
                            End Site
                            {
                              OFFSET 0 -2.6 0
                            }
                          }
                        }
                      }
                    }
                    JOINT RightHandPinky
                    {
                      OFFSET 0.75 -1.75 -1.85
                      CHANNELS 6 Xposition Yposition Zposition Zrotation Xrotation Yrotation
                      JOINT RightHandPinky1
                      {
                        OFFSET 0 -7.15 -1
                        CHANNELS 6 Xposition Yposition Zposition Zrotation Xrotation Yrotation
                        JOINT RightHandPinky2
                        {
                          OFFSET 0 -3 0
                          CHANNELS 6 Xposition Yposition Zposition Zrotation Xrotation Yrotation
                          JOINT RightHandPinky3
                          {
                            OFFSET 0 -2.35 0
                            CHANNELS 6 Xposition Yposition Zposition Zrotation Xrotation Yrotation
                            End Site
                            {
                              OFFSET 0 -2.1 0
                            }
                          }
                        }
                      }
                    }
                  }
                }
              }
            }
          }
        }
      }
    }
  }
  JOINT LeftUpLeg
  {
    OFFSET 8 0 0
    CHANNELS 6 Xposition Yposition Zposition Zrotation Xrotation Yrotation
    JOINT LeftLeg
    {
      OFFSET 0 -45 -1
      CHANNELS 6 Xposition Yposition Zposition Zrotation Xrotation Yrotation
      JOINT LeftFoot
      {
        OFFSET 0 -41 -2
        CHANNELS 6 Xposition Yposition Zposition Zrotation Xrotation Yrotation
        JOINT LeftToeBase
        {
          OFFSET 0 -7.5 12.5
          CHANNELS 6 Xposition Yposition Zposition Zrotation Xrotation Yrotation
          JOINT LeftFootToe
          {
            OFFSET 0 0 4
            CHANNELS 6 Xposition Yposition Zposition Zrotation Xrotation Yrotation
            End Site
            {
              OFFSET 0 0 0
            }
          }
        }
      }
    }
  }
  JOINT RightUpLeg
  {
    OFFSET -8 0 0
    CHANNELS 6 Xposition Yposition Zposition Zrotation Xrotation Yrotation
    JOINT RightLeg
    {
      OFFSET 0 -45 -1
      CHANNELS 6 Xposition Yposition Zposition Zrotation Xrotation Yrotation
      JOINT RightFoot
      {
        OFFSET 0 -41 -2
        CHANNELS 6 Xposition Yposition Zposition Zrotation Xrotation Yrotation
        JOINT RightToeBase
        {
          OFFSET 0 -7.5 12.5
          CHANNELS 6 Xposition Yposition Zposition Zrotation Xrotation Yrotation
          JOINT RightFootToe
          {
            OFFSET 0 0 4
            CHANNELS 6 Xposition Yposition Zposition Zrotation Xrotation Yrotation
            End Site
            {
              OFFSET 0 0 0
            }
          }
        }
      }
    }
  }
}
MOTION
Frames:	3
Frame Time:	0.0111111
-278.879 91.6919 1625.63 -4.72954 3.95908 137.469 2.27374e-13 8 4.54747e-13 -0.864883 15.608 -6.42657 0 8 -2.27374e-13 1.8736 5.58628 0.0260151 -2.27374e-13 8 0 0.936617 2.79491 0.0358346 0 8 0 0.935372 2.79121 0.035803 2.27374e-13 17 2.27374e-13 -1.30107 5.05455 -3.84595 -2.27374e-13 10.8 0 -2.52458 11.9354 -8.89433 5 17 2.27374e-13 -8.56494 -3.06338 1.60127 6.45 1.13687e-13 0 -0.986235 0.346227 3.79451 6.45 -5.68434e-14 0 4.63139 11.0585 35.5325 5.68434e-14 -32.4 -2 -30.602 -56.1489 -98.341 0 -25.65 2 15.3171 -11.9269 -35.3592 -0.5 -1.5 2.65 -73.2824 -45.4161 84.0355 0 -3.8 3.7 -0.2144 0.0870824 0.0142315 -5.68434e-14 -3 2.7 -0.179636 17.7442 -0.0230822 2.27374e-13 -1.9 1.6 -0 -3.18055e-15 -0 -1.13687e-13 -8.3 1.9 -11.0971 11.6088 1.41573 0 -4.5 5.68434e-14 -69.7719 -0.00936325 4.8971e-05 0 -3.4 0 -51.6382 -0.00377872 -0.0054211 -0.25 -2.2 0.4 -0 -3.18055e-15 -0 2.27374e-13 -8.3 1 -22.4456 9.78349 3.23718 0 -4.65 1.13687e-13 -72.934 -0.0287371 -0.00545275 0 -3.3 1.13687e-13 -90.0002 6.36111e-15 -1.59028e-15 -0.5 -2.15 -0.8 -0 -3.18055e-15 -0 0 -7.75 -0.2 -69.8254 0.575583 9.92468 0 -3.8 1.13687e-13 -1.77347 0.000463764 0.000230634 4.54747e-13 -3.4 -1.13687e-13 -90.0002 -0.00474548 -0.000274658 -0.75 -1.75 -1.85 -0 -3.18055e-15 -0 0 -7.15 -1 -60.2352 10.5009 10.6786 0 -3 0 -40.9536 -0.0144528 -0.0125431 0 -2.35 1.7053e-13 -90.0002 1.27222e-14 0.000549316 -5 17 0 4.26752 -2.47504 2.39071 -6.45 5.68434e-14 -2.27374e-13 -1.47644 -1.39652 -3.98504 -6.45 0 -2.27374e-13 -25.4869 -3.48 -21.0998 0 -32.4 -2 89.1827 -71.6804 79.6701 0 -25.65 2 -19.3861 -2.34372 0.128455 0.5 -1.5 2.65 -8.38489 -9.49111 8.04038 2.27374e-13 -3.8 3.7 0.22051 4.85518 -0.0992146 2.27374e-13 -3 2.7 0.0721582 43.9677 -0.0482406 0 -1.9 1.6 -6.36111e-15 2.38542e-15 -3.18055e-15 -2.27374e-13 -8.3 1.9 12.4593 26.1885 -3.34517 2.27374e-13 -4.5 -1.13687e-13 0.130868 0.0011203 -0.000816574 0 -3.4 0 0.129017 0.00111031 -0.00104119 0.25 -2.2 0.4 -6.36111e-15 2.38542e-15 -3.18055e-15 0 -8.3 1 15.2427 18.5655 -3.0931 2.27374e-13 -4.65 1.13687e-13 73.8407 -0.00652596 0.0308662 0 -3.3 -1.13687e-13 56.6826 0.0302379 0.030084 0.5 -2.15 -0.8 -6.36111e-15 2.38542e-15 -3.18055e-15 2.27374e-13 -7.75 -0.2 8.83038 -0.654066 -0.391258 2.27374e-13 -3.8 5.68434e-14 89.2885 -0.00242363 -0.00174134 -1.13687e-13 -3.4 -1.7053e-13 87.5666 0.0437689 -0.00785108 0.75 -1.75 -1.85 -6.36111e-15 2.38542e-15 -3.18055e-15 0 -7.15 -1 10.8748 -14.1576 0.775801 -2.27374e-13 -3 2.55795e-13 71.2182 -0.00220478 -0.0260647 0 -2.35 0 53.3335 -0.0267257 -0.0154041 8 -2.84217e-14 0 -8.75369 -9.04876 0.242812 1.13687e-13 -45 -1 -0.0273396 15.2254 0.32041 1.13687e-13 -41 -2 2.63995 -6.48356 1.48633 0 -7.5 12.5 -9.94166e-17 -4.97204e-17 -0 0 0 4 -5.85251 -6.44282 30.0618 -8 0 2.27374e-13 -21.1206 -13.3856 -29.2369 0 -45 -1 0.133557 9.63162 -3.24539 2.27374e-13 -41 -2 1.95488 2.66565 -21.0297 0 -7.5 12.5 -4.13804e-32 7.45443e-16 3.18055e-15 0 7.10543e-15 4 6.65383 0.101033 66.3596 
-278.737 91.6978 1625.53 -4.72133 3.95995 137.361 0 8 0 -1.03748 15.5315 -6.45167 0 8 0 1.8442 5.52896 0.00377851 -2.27374e-13 8 -2.27374e-13 0.921666 2.76628 0.0241413 -2.27374e-13 8 0 0.920469 2.76269 0.0241101 0 17 0 -1.22055 5.07484 -3.73935 -2.27374e-13 10.8 0 -2.34802 11.9716 -8.6537 5 17 2.27374e-13 -8.56494 -3.06338 1.60127 6.45 1.7053e-13 0 -0.986235 0.346227 3.79451 6.45 0 2.27374e-13 4.63139 11.0585 35.5325 5.68434e-14 -32.4 -2 -30.602 -56.1489 -98.341 0 -25.65 2 17.1401 -12.1716 -35.5755 -0.5 -1.5 2.65 -74.5534 -45.5921 82.8504 0 -3.8 3.7 -0.206115 0.248397 0.0078627 -5.68434e-14 -3 2.7 -0.217476 14.456 0.0367454 0 -1.9 1.6 -1.76556e-31 3.18055e-15 3.18055e-15 -1.13687e-13 -8.3 1.9 -10.7413 11.3316 1.38543 1.13687e-13 -4.5 -1.13687e-13 -70.0837 -0.00527141 0.000211972 2.27374e-13 -3.4 5.68434e-14 -51.9843 -0.00381467 -0.00471809 -0.25 -2.2 0.4 -1.76556e-31 3.18055e-15 3.18055e-15 1.13687e-13 -8.3 1 -21.7999 9.48052 3.16543 0 -4.65 1.13687e-13 -73.9085 -0.0197265 -0.00553959 0 -3.3 -5.68434e-14 -90.0002 5.08889e-14 -3.49861e-14 -0.5 -2.15 -0.8 -1.76556e-31 3.18055e-15 3.18055e-15 1.13687e-13 -7.75 -0.2 -68.9918 0.413027 9.78001 0 -3.8 0 -1.77347 0.000524609 0.000259301 2.27374e-13 -3.4 -1.13687e-13 -90.0002 -0.00474548 -0.000274658 -0.75 -1.75 -1.85 -1.76556e-31 3.18055e-15 3.18055e-15 -2.27374e-13 -7.15 -1 -59.3322 10.6068 10.4864 0 -3 -5.68434e-14 -41.4136 -0.020157 -0.0224459 0 -2.35 -5.68434e-14 -90.0002 5.725e-14 0.000549316 -5 17 0 4.4751 -2.42849 2.60877 -6.45 5.68434e-14 -2.27374e-13 -1.46237 -1.3974 -3.98211 -6.45 0 0 -24.8267 -1.70432 -21.9553 -2.27374e-13 -32.4 -2 93.0629 -70.7693 84.1864 0 -25.65 2 -18.8376 -2.40869 0.758903 0.5 -1.5 2.65 -8.35018 -8.98902 7.7727 0 -3.8 3.7 0.220228 4.76319 -0.0991435 0 -3 2.7 0.053816 43.5562 -0.0400874 0 -1.9 1.6 -1.27222e-14 3.97569e-15 -0 -2.27374e-13 -8.3 1.9 12.1361 25.963 -3.2331 0 -4.5 0 1.4871e-08 0.00112596 -0.000756739 0 -3.4 0 1.93635e-08 0.0011159 -0.0009942 0.25 -2.2 0.4 -1.27222e-14 3.97569e-15 -0 0 -8.3 1 14.5926 18.4391 -2.9452 0 -4.65 1.13687e-13 73.2926 -0.000709261 0.0208575 5.68434e-14 -3.3 1.13687e-13 55.9409 0.0226255 0.0161812 0.5 -2.15 -0.8 -1.27222e-14 3.97569e-15 -0 0 -7.75 -0.2 8.17637 -0.668957 -0.367461 2.27374e-13 -3.8 0 89.195 -0.00242161 -0.00175279 1.13687e-13 -3.4 -2.27374e-13 87.2358 0.0292338 -0.00785051 0.75 -1.75 -1.85 -1.27222e-14 3.97569e-15 -0 -2.27374e-13 -7.15 -1 9.72654 -13.952 0.661199 0 -3 2.55795e-13 71.5226 -0.00126636 -0.0126605 0 -2.35 0 53.6883 -0.0139489 -0.0063024 8 -2.84217e-14 -2.27374e-13 -8.7485 -8.90796 0.101926 1.13687e-13 -45 -1 -0.0301682 15.1745 0.353827 1.13687e-13 -41 -2 2.61783 -6.57441 1.60704 1.13687e-13 -7.5 12.5 -9.9453e-17 -4.96476e-17 3.18055e-15 0 0 4 -5.75641 -6.29591 30.0681 -8 -2.84217e-14 0 -21.2315 -13.4695 -29.3861 -4.54747e-13 -45 -1 0.144275 10.0066 -3.2365 0 -41 -2 2.07706 2.58972 -20.208 -2.27374e-13 -7.5 12.5 7.95139e-16 1.39149e-15 3.18055e-15 2.27374e-13 0 4 6.33151 0.176842 66.3549 
-278.594 91.706 1625.41 -4.7154 3.95982 137.274 -1.13687e-13 8 4.54747e-13 -1.19867 15.4483 -6.48998 -4.54747e-13 8 0 1.81729 5.47442 -0.0280667 -2.27374e-13 8 -4.54747e-13 0.907838 2.73908 0.00768806 -2.27374e-13 8 0 0.906686 2.73561 0.00767827 0 17 0 -1.14433 5.09414 -3.62602 0 10.8 0 -2.18277 12.0062 -8.39658 5 17 0 -8.56494 -3.06338 1.60127 6.45 5.68434e-14 -2.27374e-13 -0.986235 0.346227 3.79451 6.45 0 2.27374e-13 4.63139 11.0585 35.5325 0 -32.4 -2 -30.602 -56.1489 -98.341 0 -25.65 2 18.7719 -12.475 -35.6422 -0.5 -1.5 2.65 -75.5153 -45.9786 81.771 0 -3.8 3.7 -0.189082 0.83717 -0.000903359 -1.13687e-13 -3 2.7 -0.20304 10.9459 0.0948032 2.27374e-13 -1.9 1.6 -9.54166e-15 6.36111e-15 3.18055e-15 0 -8.3 1.9 -10.8155 11.2797 1.40639 -1.13687e-13 -4.5 0 -70.2176 -0.00476333 0.000369067 2.27374e-13 -3.4 5.68434e-14 -52.1351 -0.00381218 -0.00442348 -0.25 -2.2 0.4 -9.54166e-15 6.36111e-15 3.18055e-15 0 -8.3 1 -21.5057 9.31829 3.13249 0 -4.65 1.13687e-13 -74.7223 -0.0018016 -0.00547847 0 -3.3 -5.68434e-14 -90.0002 2.8625e-14 -2.8625e-14 -0.5 -2.15 -0.8 -9.54166e-15 6.36111e-15 3.18055e-15 -1.13687e-13 -7.75 -0.2 -68.6082 0.438342 9.73835 2.27374e-13 -3.8 -1.13687e-13 -1.77347 0.000575904 0.000282812 2.27374e-13 -3.4 -1.13687e-13 -90.0002 -0.00474548 -0.000274658 -0.75 -1.75 -1.85 -9.54166e-15 6.36111e-15 3.18055e-15 -1.13687e-13 -7.15 -1 -58.7578 10.5242 10.2814 2.27374e-13 -3 -1.13687e-13 -42.116 -0.0125142 -0.030603 0 -2.35 1.13687e-13 -90.0002 2.54444e-14 0.000549316 -5 17 0 4.66116 -2.36962 2.81304 -6.45 0 -4.54747e-13 -1.44994 -1.41343 -3.96986 -6.45 2.84217e-14 -2.27374e-13 -24.1108 -0.00635736 -22.7047 0 -32.4 -2 96.1983 -69.8442 87.9077 -2.27374e-13 -25.65 2 -18.26 -2.40388 1.29221 0.5 -1.5 2.65 -8.339 -8.56469 7.43089 2.27374e-13 -3.8 3.7 0.219889 4.6262 -0.0990675 -2.27374e-13 -3 2.7 0.0365172 43.3627 -0.0273516 2.27374e-13 -1.9 1.6 -9.54166e-15 5.56597e-15 -6.36111e-15 0 -8.3 1.9 11.984 25.8672 -3.18343 -2.27374e-13 -4.5 0 1.37888e-08 0.00113167 -0.000698113 0 -3.4 0 1.85501e-08 0.00112154 -0.000947686 0.25 -2.2 0.4 -9.54166e-15 5.56597e-15 -6.36111e-15 0 -8.3 1 14.2047 18.3952 -2.86816 2.27374e-13 -4.65 2.27374e-13 72.8564 0.00162765 0.0100276 0 -3.3 0 55.3582 0.012524 0.00504031 0.5 -2.15 -0.8 -9.54166e-15 5.56597e-15 -6.36111e-15 0 -7.75 -0.2 7.78189 -0.698662 -0.359133 2.27374e-13 -3.8 0 89.1115 -0.00241946 -0.00176437 0 -3.4 -2.84217e-13 86.9384 0.0139193 -0.00307281 0.75 -1.75 -1.85 -9.54166e-15 5.56597e-15 -6.36111e-15 2.27374e-13 -7.15 -1 8.98945 -13.8697 0.57613 0 -3 1.98952e-13 71.7195 0.000357445 -0.00108205 0 -2.35 0 53.9183 -0.00115622 -0.000842565 8 0 0 -8.74411 -8.74894 -0.0223581 -1.13687e-13 -45 -1 -0.0329513 15.0958 0.388692 -1.13687e-13 -41 -2 2.59887 -6.65591 1.69573 1.13687e-13 -7.5 12.5 -9.93438e-17 -4.96962e-17 9.54166e-15 0 1.73472e-18 4 -5.66166 -6.14561 30.0733 -8 -2.84217e-14 4.54747e-13 -21.3638 -13.5779 -29.5539 0 -45 -1 0.157703 10.4734 -3.23778 0 -41 -2 2.18242 2.42022 -19.3424 0 -7.5 12.5 -3.97569e-16 2.38542e-15 2.78299e-15 -2.27374e-13 0 4 6.03433 0.314393 66.35 
